<mxfile host="app.diagrams.net" modified="2021-01-15T10:17:44.933Z" agent="5.0 (X11; Linux x86_64) AppleWebKit/537.36 (KHTML, like Gecko) Chrome/87.0.4280.141 Safari/537.36" etag="D8O8r0dBemzxhTdTKQ6q" version="14.1.9" type="github">
  <diagram id="hTo4NJdafSz_vEge3E0o" name="Page-1">
    <mxGraphModel dx="1363" dy="763" grid="1" gridSize="10" guides="1" tooltips="1" connect="1" arrows="1" fold="1" page="1" pageScale="1" pageWidth="827" pageHeight="1169" math="0" shadow="0">
      <root>
        <mxCell id="0" />
        <mxCell id="1" parent="0" />
        <mxCell id="2SENxOKNQcfaIJzHNGIh-4" style="edgeStyle=orthogonalEdgeStyle;rounded=0;orthogonalLoop=1;jettySize=auto;html=1;exitX=0.5;exitY=1;exitDx=0;exitDy=0;" parent="1" source="2SENxOKNQcfaIJzHNGIh-1" target="2SENxOKNQcfaIJzHNGIh-3" edge="1">
          <mxGeometry relative="1" as="geometry" />
        </mxCell>
        <mxCell id="2SENxOKNQcfaIJzHNGIh-1" value="START" style="ellipse;whiteSpace=wrap;html=1;" parent="1" vertex="1">
          <mxGeometry x="340" y="60" width="120" height="40" as="geometry" />
        </mxCell>
        <mxCell id="2SENxOKNQcfaIJzHNGIh-2" value="&lt;font style=&quot;font-size: 15px&quot; face=&quot;Times New Roman&quot;&gt;Init_I2C_Transfer(uint8_t status)&lt;/font&gt;" style="text;html=1;align=center;verticalAlign=middle;resizable=0;points=[];autosize=1;" parent="1" vertex="1">
          <mxGeometry x="295" y="30" width="210" height="20" as="geometry" />
        </mxCell>
        <mxCell id="2SENxOKNQcfaIJzHNGIh-6" style="edgeStyle=orthogonalEdgeStyle;rounded=0;orthogonalLoop=1;jettySize=auto;html=1;exitX=0.5;exitY=1;exitDx=0;exitDy=0;" parent="1" source="2SENxOKNQcfaIJzHNGIh-3" target="2SENxOKNQcfaIJzHNGIh-5" edge="1">
          <mxGeometry relative="1" as="geometry" />
        </mxCell>
        <mxCell id="2SENxOKNQcfaIJzHNGIh-3" value="&lt;font face=&quot;Times New Roman&quot; style=&quot;font-size: 14px&quot;&gt;Initialise I2C Module&amp;nbsp;&lt;br&gt;Pin Initilalisations&lt;br&gt;&lt;/font&gt;" style="rounded=0;whiteSpace=wrap;html=1;" parent="1" vertex="1">
          <mxGeometry x="340" y="130" width="120" height="60" as="geometry" />
        </mxCell>
        <mxCell id="2SENxOKNQcfaIJzHNGIh-8" style="edgeStyle=orthogonalEdgeStyle;rounded=0;orthogonalLoop=1;jettySize=auto;html=1;exitX=0.5;exitY=1;exitDx=0;exitDy=0;entryX=0.5;entryY=0;entryDx=0;entryDy=0;" parent="1" source="2SENxOKNQcfaIJzHNGIh-5" target="2SENxOKNQcfaIJzHNGIh-7" edge="1">
          <mxGeometry relative="1" as="geometry" />
        </mxCell>
        <mxCell id="r6PuIOCZ07RlTbwsY3Pa-11" style="edgeStyle=orthogonalEdgeStyle;rounded=0;orthogonalLoop=1;jettySize=auto;html=1;exitX=1;exitY=0.5;exitDx=0;exitDy=0;entryX=0.5;entryY=0;entryDx=0;entryDy=0;" edge="1" parent="1" source="2SENxOKNQcfaIJzHNGIh-5" target="r6PuIOCZ07RlTbwsY3Pa-12">
          <mxGeometry relative="1" as="geometry">
            <mxPoint x="620" y="270.3333333333335" as="targetPoint" />
          </mxGeometry>
        </mxCell>
        <mxCell id="2SENxOKNQcfaIJzHNGIh-5" value="is Status = Master" style="rhombus;whiteSpace=wrap;html=1;" parent="1" vertex="1">
          <mxGeometry x="360" y="230" width="80" height="80" as="geometry" />
        </mxCell>
        <mxCell id="2SENxOKNQcfaIJzHNGIh-10" style="edgeStyle=orthogonalEdgeStyle;rounded=0;orthogonalLoop=1;jettySize=auto;html=1;exitX=0.5;exitY=1;exitDx=0;exitDy=0;entryX=0.5;entryY=0;entryDx=0;entryDy=0;" parent="1" source="2SENxOKNQcfaIJzHNGIh-7" target="2SENxOKNQcfaIJzHNGIh-9" edge="1">
          <mxGeometry relative="1" as="geometry" />
        </mxCell>
        <mxCell id="2SENxOKNQcfaIJzHNGIh-7" value="Initilalise DMAMUX.&lt;br&gt;and get default configuartions" style="rounded=0;whiteSpace=wrap;html=1;" parent="1" vertex="1">
          <mxGeometry x="340" y="330" width="120" height="60" as="geometry" />
        </mxCell>
        <mxCell id="r6PuIOCZ07RlTbwsY3Pa-2" style="edgeStyle=orthogonalEdgeStyle;rounded=0;orthogonalLoop=1;jettySize=auto;html=1;exitX=0.5;exitY=1;exitDx=0;exitDy=0;entryX=0.5;entryY=0;entryDx=0;entryDy=0;" edge="1" parent="1" source="2SENxOKNQcfaIJzHNGIh-9" target="r6PuIOCZ07RlTbwsY3Pa-1">
          <mxGeometry relative="1" as="geometry" />
        </mxCell>
        <mxCell id="2SENxOKNQcfaIJzHNGIh-9" value="Initialise DMA with I2C base address" style="rounded=0;whiteSpace=wrap;html=1;" parent="1" vertex="1">
          <mxGeometry x="340" y="420" width="120" height="60" as="geometry" />
        </mxCell>
        <mxCell id="r6PuIOCZ07RlTbwsY3Pa-4" style="edgeStyle=orthogonalEdgeStyle;rounded=0;orthogonalLoop=1;jettySize=auto;html=1;exitX=0.5;exitY=1;exitDx=0;exitDy=0;entryX=0.5;entryY=0;entryDx=0;entryDy=0;" edge="1" parent="1" source="r6PuIOCZ07RlTbwsY3Pa-1" target="r6PuIOCZ07RlTbwsY3Pa-3">
          <mxGeometry relative="1" as="geometry" />
        </mxCell>
        <mxCell id="r6PuIOCZ07RlTbwsY3Pa-1" value="Initialise I2C Master" style="rounded=0;whiteSpace=wrap;html=1;" vertex="1" parent="1">
          <mxGeometry x="340" y="510" width="120" height="60" as="geometry" />
        </mxCell>
        <mxCell id="r6PuIOCZ07RlTbwsY3Pa-6" style="edgeStyle=orthogonalEdgeStyle;rounded=0;orthogonalLoop=1;jettySize=auto;html=1;exitX=0.5;exitY=1;exitDx=0;exitDy=0;" edge="1" parent="1" source="r6PuIOCZ07RlTbwsY3Pa-3" target="r6PuIOCZ07RlTbwsY3Pa-5">
          <mxGeometry relative="1" as="geometry" />
        </mxCell>
        <mxCell id="r6PuIOCZ07RlTbwsY3Pa-3" value="Set DMAMUX Source" style="rounded=0;whiteSpace=wrap;html=1;" vertex="1" parent="1">
          <mxGeometry x="340" y="610" width="120" height="60" as="geometry" />
        </mxCell>
        <mxCell id="r6PuIOCZ07RlTbwsY3Pa-9" style="edgeStyle=orthogonalEdgeStyle;rounded=0;orthogonalLoop=1;jettySize=auto;html=1;exitX=0.5;exitY=1;exitDx=0;exitDy=0;" edge="1" parent="1" source="r6PuIOCZ07RlTbwsY3Pa-5" target="r6PuIOCZ07RlTbwsY3Pa-7">
          <mxGeometry relative="1" as="geometry" />
        </mxCell>
        <mxCell id="r6PuIOCZ07RlTbwsY3Pa-5" value="Create and EDMA handle and enable the handle" style="rounded=0;whiteSpace=wrap;html=1;" vertex="1" parent="1">
          <mxGeometry x="340" y="700" width="120" height="60" as="geometry" />
        </mxCell>
        <mxCell id="r6PuIOCZ07RlTbwsY3Pa-10" style="edgeStyle=orthogonalEdgeStyle;rounded=0;orthogonalLoop=1;jettySize=auto;html=1;exitX=0.5;exitY=1;exitDx=0;exitDy=0;" edge="1" parent="1" source="r6PuIOCZ07RlTbwsY3Pa-7" target="r6PuIOCZ07RlTbwsY3Pa-8">
          <mxGeometry relative="1" as="geometry" />
        </mxCell>
        <mxCell id="r6PuIOCZ07RlTbwsY3Pa-7" value="Create an I2C Master EDMA Handle for Multi byte transactions&amp;nbsp;" style="rounded=0;whiteSpace=wrap;html=1;" vertex="1" parent="1">
          <mxGeometry x="340" y="780" width="120" height="60" as="geometry" />
        </mxCell>
        <mxCell id="r6PuIOCZ07RlTbwsY3Pa-8" value="Create an I2C Master Handle for&amp;nbsp; aFew byte transactions&amp;nbsp;" style="rounded=0;whiteSpace=wrap;html=1;" vertex="1" parent="1">
          <mxGeometry x="340" y="870" width="120" height="60" as="geometry" />
        </mxCell>
        <mxCell id="r6PuIOCZ07RlTbwsY3Pa-14" style="edgeStyle=orthogonalEdgeStyle;rounded=0;orthogonalLoop=1;jettySize=auto;html=1;exitX=0.5;exitY=1;exitDx=0;exitDy=0;" edge="1" parent="1" source="r6PuIOCZ07RlTbwsY3Pa-12" target="r6PuIOCZ07RlTbwsY3Pa-13">
          <mxGeometry relative="1" as="geometry" />
        </mxCell>
        <mxCell id="r6PuIOCZ07RlTbwsY3Pa-12" value="get default configurations &amp;amp;&lt;br&gt;Initialise I2C Slave&amp;nbsp;" style="rounded=0;whiteSpace=wrap;html=1;" vertex="1" parent="1">
          <mxGeometry x="555" y="332" width="120" height="60" as="geometry" />
        </mxCell>
        <mxCell id="r6PuIOCZ07RlTbwsY3Pa-13" value="Create an I2C Slave&lt;br&gt;for reception&amp;nbsp;" style="rounded=0;whiteSpace=wrap;html=1;" vertex="1" parent="1">
          <mxGeometry x="555" y="440" width="120" height="60" as="geometry" />
        </mxCell>
      </root>
    </mxGraphModel>
  </diagram>
</mxfile>
